# 3ds Max Wavefront OBJ Exporter v0.99 - (c)2007 guruware
# File Created: 16.06.2021 14:20:38

mtllib HN917 - Bia Loi Beo.mtl

#
# object HN917___Bia_Loi_Beo
#

v  -0.1013 8.4483 1.8912
v  -0.1713 8.4483 -2.1209
v  -1.5212 8.4483 -2.9792
v  -0.0864 8.4483 2.7495
v  -1.5212 8.4483 -1.8627
v  -0.1862 9.4014 2.8852
v  -0.1862 0.0000 2.8852
v  2.4018 0.0000 2.8852
v  2.4018 9.4014 2.8852
v  2.4018 0.0000 -3.1148
v  2.4018 9.4014 -3.1148
v  -1.6568 0.0000 -3.1148
v  -1.6568 9.4014 -3.1148
v  -1.6568 0.0000 -1.8421
v  -1.6568 9.4014 -1.8421
v  2.2662 9.4014 2.7495
v  -0.0864 9.4014 2.7495
v  2.2662 9.4014 -2.9792
v  -1.5212 9.4014 -2.9792
v  -1.5212 9.4014 -1.8627
v  2.2662 8.4483 2.7495
v  2.2662 8.4483 -2.9792
v  2.2662 8.4483 -2.1209
v  2.2662 8.4483 1.8912
v  2.2662 9.5044 -2.1209
v  2.2662 10.4859 -0.2877
v  2.2662 10.4859 0.0581
v  2.2662 9.5044 1.8912
v  -0.1713 9.5044 -2.1209
v  -0.1013 9.5044 1.8912
v  -0.1324 10.4859 0.0581
v  -0.1402 10.4859 -0.2877
v  -1.5836 1.9900 -1.6045
v  -1.6985 2.2017 -1.5691
v  -1.7717 2.2017 -1.8067
v  -1.6568 1.9900 -1.8421
v  -0.2595 2.6777 2.6476
v  -0.9073 2.5133 2.8473
v  -1.0045 2.4887 2.8772
v  -2.3286 2.4887 -1.3749
v  -2.2314 2.5133 -1.4048
v  -1.5836 2.6777 -1.6045
v  -2.4018 2.4887 -1.6125
v  -2.4018 2.5828 -1.6125
v  -1.6568 2.7718 -1.8421
v  -1.6568 2.6777 -1.8421
v  -2.3046 2.5133 -1.6424
v  -2.3046 2.4069 -1.6424
v  -2.2314 2.4069 -1.4048
v  -2.0434 2.3592 -1.7229
v  -1.9702 2.3592 -1.4854
v  -0.9312 2.4887 3.1148
v  -0.9312 2.5828 3.1148
v  -0.1862 2.7718 2.8852
v  -0.2595 1.9900 2.6476
v  -0.1862 1.9900 2.8852
v  -0.3011 2.2017 2.9206
v  -0.3744 2.2017 2.6830
v  -0.8340 2.5133 3.0849
v  -0.1862 2.6777 2.8852
v  -0.9073 2.4069 2.8473
v  -0.8340 2.4069 3.0849
v  -0.5728 2.3592 3.0043
v  -0.6461 2.3592 2.7668
v  0.2033 10.4859 -0.2877
v  0.2100 10.4859 0.0581
v  1.9237 10.4859 0.0581
v  1.9226 10.4859 -0.2877
v  2.2662 9.3289 -2.5007
v  -0.1713 9.3289 -2.5007
v  -0.1013 9.3289 2.2711
v  2.2662 9.3289 2.2711
v  0.2100 10.7568 0.0581
v  -0.1324 10.7568 0.0581
v  0.2033 10.7568 -0.2877
v  -0.1402 10.7568 -0.2877
v  1.9226 10.7568 -0.2877
v  2.2662 10.7568 -0.2877
v  1.9237 10.7568 0.0581
v  2.2662 10.7568 0.0581
v  0.2657 10.8207 0.1127
v  -0.1869 10.8207 0.1139
v  -0.1869 10.7568 0.1139
v  0.2657 10.7568 0.1127
v  0.2579 10.8207 -0.3434
v  0.2579 10.7568 -0.3434
v  -0.1960 10.8207 -0.3423
v  -0.1960 10.7568 -0.3423
v  1.8674 10.8207 -0.3428
v  2.3213 10.8207 -0.3429
v  2.3213 10.7568 -0.3429
v  1.8674 10.7568 -0.3428
v  1.8687 10.8207 0.1133
v  1.8687 10.7568 0.1133
v  2.3213 10.8207 0.1132
v  2.3213 10.7568 0.1132
# 96 vertices

vn 0.0000 1.0000 -0.0000
vn 0.0000 0.0000 1.0000
vn 1.0000 0.0000 -0.0000
vn 0.0000 0.0000 -1.0000
vn -1.0000 0.0000 -0.0000
vn -0.9887 0.0000 0.1502
vn -0.9549 0.0000 0.2970
vn 0.9549 0.0000 -0.2970
vn 0.9549 -0.0000 -0.2970
vn -0.9998 0.0000 0.0174
vn -0.9999 0.0006 0.0173
vn -0.9997 -0.0051 0.0226
vn -0.9999 0.0000 0.0169
vn -0.8310 -0.4937 0.2562
vn -0.8310 -0.4937 0.2561
vn -0.1372 0.9362 0.3234
vn 0.0000 0.0000 -0.0000
vn 0.2250 -0.9718 -0.0701
vn -0.2946 0.0000 -0.9556
vn 0.0599 0.6594 0.7494
vn 0.2252 -0.9718 -0.0694
vn 0.2946 -0.0000 0.9556
vn -0.9556 0.0000 0.2946
vn -0.1641 -0.9851 0.0506
vn -0.4632 -0.8747 0.1428
vn 0.2946 0.0000 0.9556
vn -0.9554 0.0016 0.2952
vn -0.9549 0.0068 0.2970
vn -0.9549 -0.0060 0.2968
vn -0.9555 -0.0016 0.2951
vn -0.2250 0.9718 0.0700
vn 0.1906 -0.9646 -0.1825
vn -0.9556 -0.0000 0.2946
vn -0.2946 -0.0000 -0.9556
vn 0.0000 0.9480 -0.3183
vn -0.0000 0.9488 0.3157
vn -0.0000 0.9484 0.3172
vn 0.0000 0.9485 -0.3168
vn 0.0000 0.8862 -0.4633
vn -0.0000 0.8862 0.4633
vn 0.0000 0.8862 0.4633
vn -0.0000 0.0000 1.0000
vn 0.9998 0.0000 -0.0194
vn 0.9998 -0.0000 -0.0194
vn 0.0000 -0.0000 -1.0000
vn -0.9997 0.0000 0.0226
vn -1.0000 0.0000 0.0032
vn 0.0026 0.0000 1.0000
vn 0.0026 -0.0000 1.0000
vn 0.9999 0.0000 -0.0171
vn -0.0026 0.0000 -1.0000
vn -0.9998 -0.0000 0.0199
vn -0.9998 0.0000 0.0199
vn -0.0002 0.0000 -1.0000
vn -1.0000 0.0000 0.0028
vn 0.0002 0.0000 1.0000
vn 0.0000 -1.0000 -0.0000
# 57 vertex normals

vt 0.5680 0.8863 0.0000
vt 0.3906 0.8833 0.0000
vt 0.3526 0.8236 0.0000
vt 0.6059 0.8870 0.0000
vt 0.4020 0.8236 0.0000
vt 0.8148 0.6702 0.0000
vt 0.8148 0.0464 0.0000
vt 0.9990 0.0464 0.0000
vt 0.9990 0.6702 0.0000
vt 0.0005 0.5231 0.0000
vt 0.0005 0.0002 0.0000
vt 0.3342 0.0002 0.0000
vt 0.3342 0.5231 0.0000
vt 0.0004 0.5230 0.0000
vt 0.0004 0.0002 0.0000
vt 0.2262 0.0002 0.0000
vt 0.2262 0.5230 0.0000
vt 0.3606 0.6703 0.0000
vt 0.3606 0.0010 0.0000
vt 0.4512 0.0010 0.0000
vt 0.4512 0.6703 0.0000
vt 0.8036 0.6703 0.0000
vt 0.8036 0.0010 0.0000
vt 0.9599 0.8711 0.0000
vt 0.9602 0.9945 0.0000
vt 0.9537 0.9880 0.0000
vt 0.9535 0.8758 0.0000
vt 0.6741 0.9944 0.0000
vt 0.6805 0.9879 0.0000
vt 0.6739 0.8008 0.0000
vt 0.6803 0.8073 0.0000
vt 0.7346 0.8007 0.0000
vt 0.7336 0.8072 0.0000
vt 0.9397 0.3654 0.0000
vt 0.8686 0.3654 0.0000
vt 0.8686 0.3366 0.0000
vt 0.9397 0.3366 0.0000
vt 0.8051 0.3358 0.0000
vt 0.9783 0.3358 0.0000
vt 0.9783 0.3646 0.0000
vt 0.9524 0.3646 0.0000
vt 0.8310 0.3646 0.0000
vt 0.8051 0.3646 0.0000
vt 0.3105 0.9910 0.0000
vt 0.3105 0.8236 0.0000
vt 0.3526 0.9910 0.0000
vt 0.8036 0.3356 0.0000
vt 0.8373 0.3356 0.0000
vt 0.8373 0.3645 0.0000
vt 0.8036 0.3645 0.0000
vt 0.9834 0.3356 0.0000
vt 0.9834 0.3645 0.0000
vt 0.6060 0.9910 0.0000
vt 0.5680 0.9910 0.0000
vt 0.8461 0.3575 0.0000
vt 0.9674 0.3575 0.0000
vt 0.9674 0.3895 0.0000
vt 0.9120 0.4191 0.0000
vt 0.9015 0.4191 0.0000
vt 0.8461 0.3895 0.0000
vt 0.9679 0.3886 0.0000
vt 0.8941 0.3886 0.0000
vt 0.8941 0.3566 0.0000
vt 0.9679 0.3566 0.0000
vt 0.8962 0.3566 0.0000
vt 0.9678 0.3566 0.0000
vt 0.9678 0.3886 0.0000
vt 0.8962 0.3886 0.0000
vt 0.8421 0.3538 0.0000
vt 0.8421 0.3645 0.0000
vt 0.8346 0.3645 0.0000
vt 0.8346 0.3538 0.0000
vt 0.3178 0.6159 0.0000
vt 0.3171 0.6627 0.0000
vt 0.3169 0.6697 0.0000
vt 0.3170 0.6697 0.0000
vt 0.0297 0.6662 0.0000
vt 0.0298 0.6592 0.0000
vt 0.0305 0.6124 0.0000
vt 0.0143 0.6665 0.0000
vt 0.0141 0.6665 0.0000
vt 0.8305 0.3807 0.0000
vt 0.8070 0.3897 0.0000
vt 0.8070 0.3852 0.0000
vt 0.8305 0.3763 0.0000
vt 0.8275 0.3774 0.0000
vt 0.0138 0.6595 0.0000
vt 0.8071 0.3860 0.0000
vt 0.8108 0.3634 0.0000
vt 0.8071 0.3533 0.0000
vt 0.8421 0.3895 0.0000
vt 0.8346 0.3895 0.0000
vt 0.8346 0.3845 0.0000
vt 0.8421 0.3845 0.0000
vt 0.8192 0.3701 0.0000
vt 0.8275 0.3724 0.0000
vt 0.8346 0.3759 0.0000
vt 0.8421 0.3759 0.0000
vt 0.8276 0.3782 0.0000
vt 0.8276 0.3731 0.0000
vt 0.8194 0.3709 0.0000
vt 0.8106 0.3626 0.0000
vt 0.8070 0.3525 0.0000
vt 0.0125 0.5991 0.0000
vt 0.0125 0.5895 0.0000
vt 0.0286 0.5895 0.0000
vt 0.3159 0.5895 0.0000
vt 0.3319 0.5895 0.0000
vt 0.3319 0.5991 0.0000
vt 0.0471 0.7237 0.0000
vt 0.0472 0.9991 0.0000
vt 0.0008 0.9992 0.0000
vt 0.0007 0.7239 0.0000
vt 0.3326 0.6705 0.0000
vt 0.3324 0.6705 0.0000
vt 0.8305 0.3764 0.0000
vt 0.8275 0.3776 0.0000
vt 0.8070 0.3854 0.0000
vt 0.8070 0.3899 0.0000
vt 0.8305 0.3809 0.0000
vt 0.3331 0.6635 0.0000
vt 0.8075 0.3862 0.0000
vt 0.8075 0.3535 0.0000
vt 0.8111 0.3636 0.0000
vt 0.8346 0.3896 0.0000
vt 0.8421 0.3896 0.0000
vt 0.8275 0.3725 0.0000
vt 0.8192 0.3703 0.0000
vt 0.8197 0.3711 0.0000
vt 0.8280 0.3733 0.0000
vt 0.8280 0.3784 0.0000
vt 0.8106 0.3628 0.0000
vt 0.8070 0.3527 0.0000
vt 0.1401 0.8822 0.0000
vt 0.1593 0.8826 0.0000
vt 0.1593 0.9779 0.0000
vt 0.1401 0.9778 0.0000
vt 0.0012 0.9969 0.0000
vt 0.0012 0.8614 0.0000
vt 0.1401 0.8631 0.0000
vt 0.1401 0.9969 0.0000
vt 0.2982 0.8653 0.0000
vt 0.2982 0.9969 0.0000
vt 0.1593 0.9969 0.0000
vt 0.1593 0.8635 0.0000
vt 0.9519 0.3428 0.0000
vt 0.9519 0.3509 0.0000
vt 0.9416 0.3509 0.0000
vt 0.9416 0.3428 0.0000
vt 0.9519 0.3427 0.0000
vt 0.9414 0.3509 0.0000
vt 0.9414 0.3427 0.0000
vt 0.9518 0.3426 0.0000
vt 0.9518 0.3508 0.0000
vt 0.9414 0.3508 0.0000
vt 0.9414 0.3426 0.0000
vt 0.9413 0.3508 0.0000
vt 0.9413 0.3426 0.0000
vt 0.9521 0.3426 0.0000
vt 0.9521 0.3508 0.0000
vt 0.9417 0.3508 0.0000
vt 0.9417 0.3426 0.0000
vt 0.9520 0.3425 0.0000
vt 0.9520 0.3507 0.0000
vt 0.9415 0.3507 0.0000
vt 0.9415 0.3425 0.0000
vt 0.9520 0.3428 0.0000
vt 0.9520 0.3509 0.0000
vt 0.9520 0.3426 0.0000
vt 0.9520 0.3508 0.0000
vt 0.9415 0.3508 0.0000
vt 0.9415 0.3426 0.0000
vt 0.9253 0.3444 0.0000
vt 0.9390 0.3444 0.0000
vt 0.9390 0.3463 0.0000
vt 0.9253 0.3463 0.0000
vt 0.9111 0.3465 0.0000
vt 0.9249 0.3465 0.0000
vt 0.9249 0.3484 0.0000
vt 0.9111 0.3484 0.0000
vt 0.9250 0.3507 0.0000
vt 0.9113 0.3507 0.0000
vt 0.9113 0.3487 0.0000
vt 0.9250 0.3487 0.0000
vt 0.9252 0.3422 0.0000
vt 0.9390 0.3422 0.0000
vt 0.9390 0.3441 0.0000
vt 0.9252 0.3441 0.0000
vt 0.9111 0.3422 0.0000
vt 0.9249 0.3422 0.0000
vt 0.9249 0.3441 0.0000
vt 0.9111 0.3441 0.0000
vt 0.9252 0.3465 0.0000
vt 0.9390 0.3465 0.0000
vt 0.9390 0.3484 0.0000
vt 0.9252 0.3484 0.0000
vt 0.9112 0.3444 0.0000
vt 0.9249 0.3444 0.0000
vt 0.9249 0.3463 0.0000
vt 0.9112 0.3463 0.0000
vt 0.9391 0.3507 0.0000
vt 0.9253 0.3507 0.0000
vt 0.9253 0.3488 0.0000
vt 0.9391 0.3488 0.0000
vt 0.9540 0.3411 0.0000
vt 0.9677 0.3412 0.0000
vt 0.9675 0.3550 0.0000
vt 0.9537 0.3549 0.0000
vt 0.9559 0.3530 0.0000
vt 0.9662 0.3530 0.0000
vt 0.9679 0.3546 0.0000
vt 0.9542 0.3546 0.0000
vt 0.9660 0.3425 0.0000
vt 0.9677 0.3408 0.0000
vt 0.9556 0.3425 0.0000
vt 0.9540 0.3408 0.0000
vt 0.9539 0.3548 0.0000
vt 0.9540 0.3410 0.0000
vt 0.9676 0.3410 0.0000
vt 0.9676 0.3548 0.0000
vt 0.9659 0.3429 0.0000
vt 0.9555 0.3429 0.0000
vt 0.9538 0.3412 0.0000
vt 0.9675 0.3412 0.0000
vt 0.9555 0.3533 0.0000
vt 0.9538 0.3550 0.0000
vt 0.9659 0.3533 0.0000
vt 0.3906 0.9910 0.0000
# 228 texture coords

o HN917___Bia_Loi_Beo
g HN917___Bia_Loi_Beo
usemtl Material__29
s 1
f 1/1/1 2/2/1 3/3/1 
f 4/4/1 1/1/1 3/3/1 
f 4/4/1 3/3/1 5/5/1 
s 2
f 6/6/2 7/7/2 8/8/2 
f 8/8/2 9/9/2 6/6/2 
s 4
f 9/10/3 8/11/3 10/12/3 
f 10/12/3 11/13/3 9/10/3 
s 2
f 11/14/4 10/15/4 12/16/4 
f 12/16/4 13/17/4 11/14/4 
s 1
f 13/18/5 12/19/5 14/20/6 
f 14/20/6 15/21/6 13/18/5 
f 6/22/7 15/21/6 14/20/6 
f 14/20/6 7/23/7 6/22/7 
s off
f 6/24/1 9/25/1 16/26/1 
f 16/26/1 17/27/1 6/24/1 
f 9/25/1 11/28/1 18/29/1 
f 18/29/1 16/26/1 9/25/1 
f 13/30/1 19/31/1 18/29/1 
f 18/29/1 11/28/1 13/30/1 
f 13/30/1 15/32/1 20/33/1 
f 20/33/1 19/31/1 13/30/1 
f 15/32/1 6/24/1 17/27/1 
f 17/27/1 20/33/1 15/32/1 
f 17/34/4 16/35/4 21/36/4 
f 21/36/4 4/37/4 17/34/4 
f 16/38/5 18/39/5 22/40/5 
f 16/38/5 22/40/5 23/41/5 
f 16/38/5 23/41/5 24/42/5 
f 16/38/5 24/42/5 21/43/5 
f 18/44/2 19/45/2 3/3/2 
f 3/3/2 22/46/2 18/44/2 
f 19/47/3 20/48/3 5/49/3 
f 5/49/3 3/50/3 19/47/3 
f 20/48/8 17/51/8 4/52/8 
f 4/52/9 5/49/9 20/48/9 
s 1
f 4/4/1 21/53/1 24/54/1 
f 24/54/1 1/1/1 4/4/1 
s off
f 24/55/3 23/56/3 25/57/3 
f 24/55/3 25/57/3 26/58/3 
f 24/55/3 26/58/3 27/59/3 
f 24/55/3 27/59/3 28/60/3 
f 23/61/4 2/62/4 29/63/4 
f 29/63/4 25/64/4 23/61/4 
f 2/55/10 1/56/10 30/57/10 
f 2/55/11 30/57/11 31/58/11 
f 2/55/12 31/58/12 32/59/12 
f 2/55/13 32/59/13 29/60/13 
f 1/65/2 24/66/2 28/67/2 
f 28/67/2 30/68/2 1/65/2 
f 33/69/14 34/70/14 35/71/14 
f 35/71/15 36/72/15 33/69/15 
f 37/73/16 38/74/16 39/75/16 
f 37/73/17 39/75/17 39/76/17 
f 37/73/18 39/76/18 40/77/18 
f 37/73/17 40/77/17 40/77/17 
f 37/73/18 40/77/18 41/78/18 
f 37/73/18 41/78/18 42/79/18 
f 40/77/17 43/80/17 43/81/17 
f 43/81/17 40/77/17 40/77/17 
f 44/82/19 45/83/19 46/84/19 
f 43/85/19 44/82/19 46/84/19 
f 43/85/20 46/84/20 47/86/20 
f 43/85/17 47/86/17 43/85/17 
f 40/77/21 43/81/21 47/87/21 
f 47/87/21 41/78/21 40/77/21 
f 42/88/22 34/89/22 33/90/22 
f 41/91/23 47/92/23 48/93/23 
f 48/93/23 49/94/23 41/91/23 
f 47/86/19 46/84/19 50/95/19 
f 50/95/19 48/96/19 47/86/19 
f 49/94/24 48/93/24 50/97/24 
f 50/97/24 51/98/24 49/94/24 
f 51/98/25 50/97/25 35/71/25 
f 35/71/25 34/70/25 51/98/25 
f 42/88/26 41/99/26 49/100/26 
f 49/100/22 51/101/22 42/88/22 
f 46/84/19 35/102/19 50/95/19 
f 42/88/22 51/101/22 34/89/22 
f 46/84/19 36/103/19 35/102/19 
s 8
f 44/104/27 43/105/23 40/106/28 
f 44/104/27 40/106/28 39/107/29 
f 39/107/29 52/108/23 53/109/30 
f 44/104/27 39/107/29 53/109/30 
s off
f 44/110/31 53/111/31 54/112/31 
f 54/112/31 45/113/31 44/110/31 
f 55/72/14 56/69/14 57/70/14 
f 57/70/14 58/71/14 55/72/14 
f 39/76/17 39/75/17 52/114/17 
f 52/114/17 52/115/17 39/76/17 
f 52/116/17 52/116/17 59/117/17 
f 52/116/32 59/117/32 60/118/32 
f 52/116/22 60/118/22 54/119/22 
f 52/116/26 54/119/26 53/120/26 
f 39/75/21 38/74/21 59/121/21 
f 59/121/21 52/114/21 39/75/21 
f 37/122/19 55/123/19 58/124/19 
f 38/125/33 61/93/33 62/94/33 
f 62/94/33 59/126/33 38/125/33 
f 59/117/22 62/127/22 63/128/22 
f 63/128/26 60/118/26 59/117/26 
f 61/93/24 64/97/24 63/98/24 
f 63/98/24 62/94/24 61/93/24 
f 64/97/25 58/71/25 57/70/25 
f 57/70/25 63/98/25 64/97/25 
f 37/122/34 64/129/34 61/130/34 
f 61/130/19 38/131/19 37/122/19 
f 60/118/26 63/128/26 57/132/26 
f 37/122/34 58/124/34 64/129/34 
f 60/118/22 57/132/22 56/133/22 
s 1
f 65/134/35 66/135/36 67/136/37 
f 67/136/37 68/137/38 65/134/35 
f 69/138/39 70/139/39 32/140/39 
f 69/138/39 32/140/39 65/134/35 
f 69/138/39 65/134/35 68/137/38 
f 26/141/39 69/138/39 68/137/38 
f 71/142/40 72/143/41 27/144/40 
f 71/142/40 27/144/40 67/136/37 
f 71/142/40 67/136/37 66/135/36 
f 31/145/41 71/142/40 66/135/36 
s off
f 66/146/42 73/147/42 74/148/42 
f 74/148/42 31/149/42 66/146/42 
f 65/150/43 75/147/43 73/151/43 
f 73/151/44 66/152/44 65/150/44 
f 32/153/45 76/154/45 75/155/45 
f 75/155/4 65/156/4 32/153/4 
f 31/153/46 74/154/46 76/157/46 
f 76/157/46 32/158/46 31/153/46 
f 68/159/4 77/160/4 78/161/4 
f 78/161/4 26/162/4 68/159/4 
f 67/163/47 79/164/47 77/165/47 
f 77/165/47 68/166/47 67/163/47 
f 27/167/42 80/168/42 79/148/42 
f 79/148/42 67/149/42 27/167/42 
f 26/169/3 78/170/3 80/171/3 
f 80/171/3 27/172/3 26/169/3 
f 81/173/48 82/174/48 83/175/48 
f 83/175/49 84/176/49 81/173/49 
f 85/177/50 81/178/50 84/179/50 
f 84/179/50 86/180/50 85/177/50 
f 87/181/51 85/182/51 86/183/51 
f 86/183/51 88/184/51 87/181/51 
f 82/185/52 87/186/52 88/187/52 
f 88/187/53 83/188/53 82/185/53 
f 89/189/54 90/190/54 91/191/54 
f 91/191/54 92/192/54 89/189/54 
f 93/193/55 89/194/55 92/195/55 
f 92/195/55 94/196/55 93/193/55 
f 95/197/56 93/198/56 94/199/56 
f 94/199/56 96/200/56 95/197/56 
f 90/201/3 95/202/3 96/203/3 
f 96/203/3 91/204/3 90/201/3 
s 1
f 82/205/1 81/206/1 85/207/1 
f 85/207/1 87/208/1 82/205/1 
s off
f 74/209/57 73/210/57 84/211/57 
f 84/211/57 83/212/57 74/209/57 
f 73/210/57 75/213/57 86/214/57 
f 86/214/57 84/211/57 73/210/57 
f 75/213/57 76/215/57 88/216/57 
f 88/216/57 86/214/57 75/213/57 
f 76/215/57 74/209/57 83/212/57 
f 83/212/57 88/216/57 76/215/57 
s 1
f 89/217/1 93/218/1 95/219/1 
f 95/219/1 90/220/1 89/217/1 
s off
f 78/221/57 77/222/57 92/223/57 
f 92/223/57 91/224/57 78/221/57 
f 77/222/57 79/225/57 94/226/57 
f 94/226/57 92/223/57 77/222/57 
f 79/225/57 80/227/57 96/207/57 
f 96/207/57 94/226/57 79/225/57 
f 80/227/57 78/221/57 91/224/57 
f 91/224/57 96/207/57 80/227/57 
s 1
f 2/2/1 23/228/1 22/46/1 
f 22/46/1 3/3/1 2/2/1 
# 173 faces

